<?xml version="1.0" encoding="UTF-8" standalone="no"?>
<!-- Created with Inkscape (http://www.inkscape.org/) -->

<svg
   xmlns:a="http://ns.adobe.com/AdobeSVGViewerExtensions/3.0/"
   xmlns:dc="http://purl.org/dc/elements/1.1/"
   xmlns:cc="http://creativecommons.org/ns#"
   xmlns:rdf="http://www.w3.org/1999/02/22-rdf-syntax-ns#"
   xmlns:svg="http://www.w3.org/2000/svg"
   xmlns="http://www.w3.org/2000/svg"
   xmlns:xlink="http://www.w3.org/1999/xlink"
   xmlns:sodipodi="http://sodipodi.sourceforge.net/DTD/sodipodi-0.dtd"
   xmlns:inkscape="http://www.inkscape.org/namespaces/inkscape"
   width="500"
   height="500"
   viewBox="0 0 132.3 132.2"
   version="1.1"
   id="svg4632"
   inkscape:version="0.92.4 5da689c313, 2019-01-14"
   sodipodi:docname="icon.svg">
  <defs
     id="defs4626">
    <linearGradient
       inkscape:collect="always"
       id="linearGradient4952">
      <stop
         style="stop-color:#3db0d5;stop-opacity:1"
         offset="0"
         id="stop4948" />
      <stop
         style="stop-color:#3c74b7;stop-opacity:1"
         offset="1"
         id="stop4950" />
    </linearGradient>
    <linearGradient
       inkscape:collect="always"
       xlink:href="#linearGradient4952"
       id="linearGradient4954"
       x1="67.36"
       y1="160.3"
       x2="71.75"
       y2="300.9"
       gradientUnits="userSpaceOnUse" />
  </defs>
  <sodipodi:namedview
     id="base"
     pagecolor="#ffffff"
     bordercolor="#666666"
     borderopacity="1.0"
     inkscape:pageopacity="0.0"
     inkscape:pageshadow="2"
     inkscape:zoom="0.7"
     inkscape:cx="339.3"
     inkscape:cy="263.6"
     inkscape:document-units="mm"
     inkscape:current-layer="layer1"
     showgrid="false"
     units="px" />
  <metadata
     id="metadata4629">
    <rdf:RDF>
      <cc:Work
         rdf:about="">
        <dc:format>image/svg+xml</dc:format>
        <dc:type
           rdf:resource="http://purl.org/dc/dcmitype/StillImage" />
        <dc:title></dc:title>
      </cc:Work>
    </rdf:RDF>
  </metadata>
  <g
     inkscape:label="Layer 1"
     inkscape:groupmode="layer"
     id="layer1"
     transform="translate(0,-164.8)">
    <rect
       style="fill:url(#linearGradient4954);fill-rule:evenodd;stroke:#030402;stroke-width:2.1168;stroke-linecap:round;stroke-linejoin:round"
       id="rect4946"
       width="141"
       height="138.4"
       x="-4.157"
       y="161.8" />
    <path
       style="fill:none;fill-rule:evenodd;stroke:#030402;stroke-width:2.1168;stroke-linecap:round;stroke-linejoin:round"
       d="M 47.95,256.6 C 65.14,252.7 55.08,235.8 65.2,230"
       id="path4944"
       inkscape:connector-curvature="0"
       sodipodi:nodetypes="cc" />
    <g
       id="g4940"
       transform="matrix(1.102,0,0,1.102,24.3,139.8)">
      <path
         id="path4926"
         d="m 66.03,52.92 v -5.65 c 0,0 0,-9.04 -9.04,-9.04 h -4.38 v -6.84 c 0,-3.12 -2.26,-6.44 -6.44,-6.44 H 20.06 c -3.12,0 -6.44,2.26 -6.44,6.44 v 6.84 H 9.24 c 0,0 -9.042,0 -9.042,9.04 v 29.1 c 0,0 0,9.04 9.042,9.04 h 47.75 c 0,0 9.04,0 9.04,-9.04 v -4.8 h 9.32 V 52.92 Z M 20.4,31.73 h 25.43 v 6.5 H 20.4 Z M 55.01,61.7 c 0,3.06 -3.05,3.06 -3.05,3.06 H 38.31 c -3.05,0 -3.05,-3.06 -3.05,-3.06 v -8.05 c 0,-3.05 3.05,-3.05 3.05,-3.05 h 13.65 c 3.05,0 3.05,3.05 3.05,3.05 z"
         inkscape:connector-curvature="0" />
      <polygon
         id="polygon4928"
         points="91.87,40.2 91.87,83 78.04,76.08 78.04,48.68 " />
    </g>
    <g
       id="Layer_1"
       transform="matrix(0.2448,0,0,0.2448,1.748,219.7)">
			<rect
   id="_x3C_Slice_x3E_"
   style="fill:none"
   y="0"
   x="0"
   height="256"
   width="256" />
 
			<g
   id="g8">
				
					<linearGradient
   gradientUnits="userSpaceOnUse"
   id="XMLID_12_"
   y2="180.1"
   x2="219.9"
   y1="180.1"
   x1="36.11">
					<stop
   id="stop11"
   offset="0"
   style="stop-color:#333333" />

					<stop
   id="stop13"
   offset="1"
   style="stop-color:#000000" />

					<a:midPointStop
   offset="0"
   style="stop-color:#333333" />

					<a:midPointStop
   offset="0.5"
   style="stop-color:#333333" />

					<a:midPointStop
   offset="1"
   style="stop-color:#000000" />

				</linearGradient>

				<path
   id="path15"
   style="fill:url(#XMLID_12_)"
   d="m 119.9,117.8 v 0 l -78.26,18.5 c -5.37,1.3 -8.95,3.3 -10.64,6.1 -0.75,1.2 -1.15,2.6 -1.15,3.9 l 0.1,0.8 v 0.2 c 0,0 0.12,0.9 0.12,0.9 0,0 0,0 0,0 0,0.1 0,0.2 0,0.2 v 0 c 0,0.1 0,0.2 0,0.2 v 0 c 0,0.1 0,0.2 0,0.2 v 0 c 0,0.1 0,0.3 0,0.3 v 0 c 0,0 0,0.2 0,0.2 v 0 c 0,0 0,0.2 0,0.2 v 0 c 0,0 0,0.2 0,0.2 v 0 c 0,0 0,0.2 0,0.2 v 0 c 0,0.1 0,0.2 0,0.2 v 0 c 0,0.1 0,0.2 0,0.2 v 0 c 0,0.1 0,0.3 0,0.3 v 0 c 0,0 0,0.2 0,0.2 0,0 0,0 0,0 0,0 0,0.2 0,0.2 v 0 c 0,0 0,0.1 0,0.1 0,0 0,0 0,0 0,0.1 0,0.3 0,0.3 v 0 c 0,0.1 0,0.3 0,0.3 v 0 c 0,0 0,0.2 0,0.2 v 0 c 0,0 0,0.2 0,0.2 v 0 c 0,0 0,0.2 0,0.2 v 0 c 0,0.1 0,0.2 0,0.2 v 0 c 0,0.1 0,0.2 0,0.2 v 0 c 0,0.1 0,0.2 0,0.2 0,0 0,0 0,0 0,0.1 0,0.2 0,0.2 v 0 c 0,0.1 0,0.3 0,0.3 v 0 c 0,0 0,0.2 0,0.2 v 0 c 0,0.1 0,0.2 0,0.2 v 0 c 0,0.1 0,0.2 0,0.2 v 0 c 0,0.1 0,0.3 0,0.3 v 0 c 0,0 0,0.2 0,0.2 v 0 c 0,0 0,0.2 0,0.2 v 0 c 0,0 0,0.2 0,0.2 v 0 c 0,0.1 0,0.2 0,0.2 v 0 c 0,0.1 0,0.2 0,0.2 v 0 c 0,0.1 0,0.3 0,0.3 v 0 c 0,0 0,0.2 0,0.2 v 0 c 0,0.1 0,0.2 0,0.2 v 0 c 0,0.1 0,0.2 0,0.2 v 0 c 0,0.1 0,0.2 0,0.2 v 0 c 0,0.1 0,0.3 0,0.3 v 0 c 0,0 0,0.2 0,0.2 v 0 c 0,0 0,0.2 0,0.2 v 0 c 0,0 0,0.2 0,0.2 v 0 c 0,0 0,0.2 0,0.2 v 0 c 0,0.1 0,0.2 0,0.2 v 0 c 0,0.1 0,0.3 0,0.3 v 0 c 0,0 0,0.2 0,0.2 v 0 c 0,0 0,0.2 0,0.2 v 0 c 0,0 0,0.2 0,0.2 0,0 0,0 0,0 0,0 0,0.2 0,0.2 v 0 c 0,0.1 0,0.2 0,0.2 v 0 c 0,0.1 0,0.3 0,0.3 v 0 c 0,0 0,0.2 0,0.2 v 0 c 0,0 0,0.2 0,0.2 v 0 c 0,0.1 0.1,0.4 0.1,0.4 v 0 c 0,0.1 0,0.2 0,0.2 v 0 c 0,0.1 0,0.3 0,0.3 v 0 c 0,0 0,0.2 0,0.2 v 0 c 0,0.1 0,0.2 0,0.2 v 0 c 0,0.1 0,0.2 0,0.2 v 0 c 0,0.1 0,0.2 0,0.2 0,0 0,0 0,0 0,0.1 0,0.2 0,0.2 v 0 c 0,0.1 0,0.3 0,0.3 v 0 c 0,0 0,0.2 0,0.2 v 0 c 0,0 0,0.2 0,0.2 0,0 0,0 0,0 0,0.1 0,0.2 0,0.2 v 0 c 0,0.1 0,0.2 0,0.2 v 0 c 0,0.1 0,0.3 0,0.3 v 0 c 0,0 0,0.2 0,0.2 v 0 c 0,0 0,0.2 0,0.2 v 0 c 0,0 0,0.2 0,0.2 v 0 c 0,0.1 0,0.2 0,0.2 v 0 c 0,0.1 0,0.2 0,0.2 v 0 c 0,0.1 0,0.3 0,0.3 v 0 c 0,0 0,0.2 0,0.2 v 0 c 0,0 0,0.2 0,0.2 v 0 c 0,0 0,0.2 0,0.2 v 0 c 0,0 0,0.2 0,0.2 v 0 c 0,0.1 0,0.2 0,0.2 v 0 c 0,0.1 0,0.3 0,0.3 v 0 c 0,0 0,0.2 0,0.2 v 0 c 0,0 0,0.2 0,0.2 v 0 c 0,0 0,0.2 0,0.2 v 0 c 0,0.1 0,0.2 0,0.2 v 0 c 0,0.1 0,0.2 0,0.2 v 0 c 0,0.1 0,0.2 0,0.2 v 0 c 0,0.1 0,0.3 0,0.3 0,0 0,0 0,0 0,0 0,0.2 0,0.2 v 0 c 0,0 0,0.2 0,0.2 v 0 c 0,0.1 0,0.2 0,0.2 v 0 c 0,0.1 0,0.2 0,0.2 v 0 c 0,0.1 0,0.3 0,0.3 v 0 c 0,0 0,0.2 0,0.2 v 0 c 0,0 0,0.2 0,0.2 v 0 c 0,0 0,0.2 0,0.2 v 0 c 0,0.1 0,0.2 0,0.2 v 0 c 0,0.1 0,0.3 0,0.3 v 0 c 0,0 0,0.2 0,0.2 v -0.1 c 0,0.1 0,0.3 0,0.3 v 0 c 0,0 0,0.2 0,0.2 v 0 c 0,0.1 0,0.2 0,0.2 v 0 c 0,0.1 0,0.3 0,0.3 v 0 c 0,0 0,0.2 0,0.2 v 0 c 0,0 0,0.1 0,0.1 v 0 c 0,0.1 0,0.3 0,0.3 v 0 c 0,0 0,0.2 0,0.2 v 0 c 0,0 0,0.2 0,0.2 v 0 c 0,0.1 0,0.2 0,0.2 v 0 c 0,0.1 0,0.2 0,0.2 v 0 c 0,0.1 0,0.3 0,0.3 v 0 c 0,0 0,0.2 0,0.2 v 0 c 0,0 0,0.2 0,0.2 v 0 c 0,0.1 0,0.2 0,0.2 v 0 c 0,0.1 0,0.3 0,0.3 v 0 c 0,0 0,0.2 0,0.2 v 0 c 0,0 0,0.2 0,0.2 v 0 c 0,0 0,0.2 0,0.2 v 0 c 0,0.1 0,0.2 0,0.2 v 0 c 0,0.1 0,0.2 0,0.2 v 0 c 0,0.1 0,0.2 0,0.2 v 0 c 0,0.1 0,0.2 0,0.2 v 0 c 0,0.1 0,0.3 0,0.3 v 0 c 0,0 0,0.2 0,0.2 v 0 c 0,0 0,0.2 0,0.2 0,0 0,0 0,0 0,0.1 0,0.2 0,0.2 v 0 c 0,0.1 0,0.2 0,0.2 v 0 c 0,0.1 0,0.2 0,0.2 v 0 c 0,0.1 0,0.3 0,0.3 v 0 c 0,0 0,0.2 0,0.2 v 0 c 0,0.1 0,0.2 0,0.2 v 0 c 0,0.1 0,0.2 0,0.2 v 0 c 0,0.1 0,0.3 0,0.3 v 0 c 0,0 0,0.2 0,0.2 0,0 0,0 0,0 0,0 0,0.2 0,0.2 v 0 c 0,0 0,0.2 0,0.2 v 0 c 0,0 0,0.2 0,0.2 v 0 c 0,0.1 0,0.2 0,0.2 v 0 c 0,0.1 0,0.2 0,0.2 v 0 c 0,0.1 0,0.3 0,0.3 v 0 c 0,0 0,0.2 0,0.2 v 0 c 0,0 0,0.2 0,0.2 v 0 c 0,0 0,0.2 0,0.2 v 0 c 0,0.1 0,0.2 0,0.2 v 0 c 0,0.1 0,0.3 0,0.3 v 0 c 0,0 0,0.2 0,0.2 v 0 c 0,0 0,0.2 0,0.2 v 0 c 0,0 0,0.2 0,0.2 v 0 c 0,0.1 0,0.2 0,0.2 0,0 0,0 0,0 0,0.1 0,0.3 0,0.3 v -0.1 c 0,0.1 0,0.3 0,0.3 v 0 c 0,0 0,0.2 0,0.2 0,0 0,0 0,0 0,0 0,0.2 0,0.2 v 0 c 0,0.1 0,0.2 0,0.2 v 0 c 0,0.1 0,0.2 0,0.2 v 0 c 0,0.1 0,0.3 0,0.3 v 0 c 0,0 0,0.2 0,0.2 0,0 0,0 0,0 0,0 0,0.2 0,0.2 0,0 0,0 0,0 0,0 0,0.2 0,0.2 v 0 c 0,0.1 0,0.2 0,0.2 v 0 c 0,0.1 0,0.2 0,0.2 0,0 0,0 0,0 0,0.1 0,0.3 0,0.3 v 0 c 0,0 0,0.2 0,0.2 v 0 c 0,0.1 0,0.2 0,0.2 v 0 c 0,0 0,0.2 0,0.2 v 0 c 0,0.1 0,0.3 0,0.3 v 0 c 0,0 0,0.1 0,0.1 v 0 c 0,0.1 0,0.3 0,0.3 v 0 c 0,0 0,0.2 0,0.2 v 0 c 0,0 0,0.2 0,0.2 v 0 c 0,0.1 0,0.2 0,0.2 v 0 c 0,0.1 0,0.2 0,0.2 0,0 0,0 0,0 0,0.1 0,0.3 0,0.3 v 0 c 0,0 0,0.2 0,0.2 v 0 c 0,0 0,0.2 0,0.2 v 0 c 0,0 0,0.2 0,0.2 v 0 c 0,0 0,0.2 0,0.2 v 0 c 0,0 0,0.2 0,0.2 v 0 c 0,0.1 0,0.3 0,0.3 v 0 c 0,0 0,0.2 0,0.2 v 0 c 0,0 0,0.2 0,0.2 v 0 c 0,0.1 0,0.2 0,0.2 0,0 0,0 0,0 0,0.1 0,0.2 0,0.2 v 0 c 0,0.1 0,0.2 0,0.2 v 0 c 0,0.1 0,0.3 0,0.3 v 0 c 0,0 0,0.2 0,0.2 v 0 c 0,0 0,0.2 0,0.2 v 0 c 0,0.1 0,0.2 0,0.2 v 0 c 0,0.1 0,0.2 0,0.2 v 0 c 0,0.1 0,0.2 0,0.2 v 0 c 0,0.1 0,0.3 0,0.3 v 0 c 0,0 0,0.2 0,0.2 v 0 c 0,0.1 0,0.2 0,0.2 v 0 c 0,0 0,0.2 0,0.2 v 0 c 0,0.1 0,0.2 0,0.2 v 0 c 0,0.1 0,0.2 0,0.2 v 0 c 0,0.1 0,0.3 0,0.3 v 0 c 0,0 0,0.2 0,0.2 v 0 c 0,0 0,0.1 0,0.1 v 0 c 0,0.1 0,0.3 0,0.3 0,0 0,0 0,0 0.44,2.1 1.75,3.9 3.83,5.1 l 74.5,43 c 8.6,4.9 22.2,4.9 30.2,-0.2 l 68,-42.9 c 1.7,-1.1 2.9,-2.7 3.4,-4.5 v 0 l 0.3,-1.7 v 0 c 0,0 0.1,-0.2 0.1,-0.2 v 0 c 0,-0.1 0,-0.2 0,-0.2 v 0 c 0,-0.1 0,-0.2 0,-0.2 v 0 c 0,-0.1 0.1,-0.2 0.1,-0.2 v 0 c 0,-0.1 0,-0.3 0,-0.3 v 0 c 0,0 0,-0.1 0,-0.1 v 0 c 0.1,-0.1 0.1,-0.3 0.1,-0.3 v 0 c 0,0 0,-0.1 0,-0.1 v 0 c 0.1,-0.2 0.1,-0.5 0.1,-0.5 v 0 c 0,0 0.1,-0.3 0.1,-0.3 v 0 c 0,0 0,0 0,0 v -0.2 0 c 0,-0.1 0,-0.2 0,-0.2 v 0 C 211,187.3 211,187 211,187 v 0 c 0,-0.1 0,-0.2 0,-0.2 v 0 c 0,-0.1 0.1,-0.9 0.1,-0.9 v 0 c 0,0 0,0 0,0 v 0 c 0.1,-0.2 0.1,-0.4 0.1,-0.4 v 0 c 0,-0.1 0.1,-0.7 0.1,-0.7 v 0 c 0,0 0.1,-0.6 0.1,-0.6 v 0 c 0.1,-0.2 0.1,-0.5 0.1,-0.5 v 0 c 0,-0.1 0,-0.2 0,-0.2 v 0 c 0.1,-0.4 0.2,-1 0.2,-1 v 0 c 0,0 0.2,-0.7 0.2,-0.7 v 0 c 0,-0.2 0,-0.4 0,-0.4 v 0 c 0.1,-0.1 0.1,-0.6 0.1,-0.6 0,0 0.1,-0.5 0.1,-0.5 v 0 c 0.1,-0.1 0.2,-0.8 0.2,-0.8 v 0 c 0,-0.1 0,-0.1 0,-0.1 v 0 -0.2 0 c 0.1,-0.1 0.1,-0.2 0.1,-0.2 v 0 c 0,-0.1 0.1,-0.9 0.1,-0.9 v 0 c 0,-0.1 0.1,-0.2 0.1,-0.2 v 0 c 0,-0.3 0.1,-0.5 0.1,-0.5 v 0 c 0,0 0,0 0,0 v 0 -0.2 c 0,0 0,0 0,0 0,-0.1 0,-0.2 0,-0.2 v 0 c 0.1,-0.4 0.2,-0.8 0.2,-0.8 v 0 c 0,-0.1 0,-0.2 0,-0.2 v 0 c 0.1,-0.2 0.1,-0.3 0.1,-0.3 v 0 c 0,-0.3 0.1,-0.7 0.1,-0.7 v 0 l 0.2,-1 v 0 c 0,0 0,-0.2 0,-0.2 v 0 c 0.1,-0.1 0.1,-0.4 0.1,-0.4 v 0 c 0,-0.2 0.1,-0.4 0.1,-0.4 v 0 c 0,-0.1 0,-0.3 0,-0.3 v 0 c 0,-0.1 0.1,-0.6 0.1,-0.6 v 0 c 0.1,-0.3 0.2,-0.7 0.2,-0.7 v 0 c 0,0 0,-0.2 0,-0.2 v 0 c 0,-0.1 0.1,-0.3 0.1,-0.3 h -0.1 c 0.1,-0.1 0.2,-0.7 0.2,-0.7 v -0.1 c 0,-0.1 0.1,-0.4 0.1,-0.4 v 0 c 0,0 0,-0.2 0,-0.2 v 0 c 0,-0.2 0.1,-0.4 0.1,-0.4 v 0 c 0,-0.1 0,-0.3 0,-0.3 v 0 c 0,0 0.1,-0.2 0.1,-0.2 v 0 c 0,-0.1 0.1,-0.8 0.1,-0.8 v 0 c 0,-0.1 0.1,-0.2 0.1,-0.2 v 0 c 0,-0.1 0.2,-1.4 0.2,-1.4 0,0 0,0 0,0 0,0 0.1,-0.2 0.1,-0.2 v 0 c 0,-0.2 0,-0.4 0,-0.4 v 0 c 0,-0.1 0.1,-0.2 0.1,-0.2 v 0 c 0,-0.2 0.1,-0.4 0.1,-0.4 h -0.1 c 0.1,-0.2 0.1,-0.5 0.1,-0.5 v 0 c 0.1,-0.2 0.1,-0.4 0.1,-0.4 v 0 c 0,-0.2 0.1,-0.4 0.1,-0.4 v 0 c 0,-0.1 0,-0.3 0,-0.3 v 0 c 0.1,-0.3 0.1,-0.6 0.1,-0.6 v 0 c 0.1,-0.1 0.1,-0.2 0.1,-0.2 v 0 c 0,-0.1 0,-0.3 0,-0.3 v 0 c 0.1,-0.2 0.1,-0.4 0.1,-0.4 v 0 l 0.1,-0.4 v 0 c 0,-0.1 0,-0.2 0,-0.2 v 0 c 0.1,-0.2 0.1,-0.5 0.1,-0.5 v 0 c 0,-0.2 0.1,-0.4 0.1,-0.4 v 0 c 0,-0.2 0.1,-0.4 0.1,-0.4 v 0 c 0,-0.1 0,-0.3 0,-0.3 v 0 c 0,-0.1 0.1,-0.4 0.1,-0.4 v 0 c 0,0 0,-0.2 0,-0.2 v 0 c 0.1,-0.2 0.1,-0.4 0.1,-0.4 v 0 c 0,-0.1 0.1,-0.5 0.1,-0.5 v 0 c 0,-0.2 0.1,-0.4 0.1,-0.4 v 0 c 0,-0.2 0,-0.4 0,-0.4 v 0 c 0.1,-0.1 0.1,-0.3 0.1,-0.3 v 0 c 0,0 0,-0.2 0,-0.2 v 0 c 0.1,-0.2 0.1,-0.4 0.1,-0.4 v 0 c 0,-0.1 0,-0.2 0,-0.2 v 0 c 0.1,-0.3 0.1,-0.5 0.1,-0.5 v 0 c 0,0 0.1,-0.2 0.1,-0.2 v 0 c 0,0 0,-0.2 0,-0.2 v 0 c 0,-0.2 0.1,-0.4 0.1,-0.4 v 0 c 0,-0.1 0,-0.1 0,-0.1 v 0 -0.2 0 c 0,0 0.1,-0.2 0.1,-0.2 v 0 c 0,0 0,-0.2 0,-0.2 v 0 c 0,-0.1 0,-0.2 0,-0.2 v 0 c 0.1,-0.2 0.1,-0.4 0.1,-0.4 v 0 c 0,-0.1 0.1,-0.2 0.1,-0.2 H 217 c 8,-0.2 8,-0.5 8,-0.5 v 0 c 0.1,-0.2 0.2,-0.8 0.2,-0.8 v 0 c 0,-0.1 0,-0.3 0,-0.3 v 0 c 0.1,-0.2 0.1,-0.4 0.1,-0.4 v 0 c 0,-0.1 0,-0.2 0,-0.2 v 0 c 0.1,-0.1 0.1,-0.2 0.1,-0.2 v 0 c 0,-0.3 0.1,-0.5 0.1,-0.5 v 0 c 0,0 0,-0.2 0,-0.2 v 0 c 0,0 0,-0.2 0,-0.2 v 0 c 0.1,0 0.1,-0.2 0.1,-0.2 v 0 c 0,-0.1 0,-0.2 0,-0.2 v 0 c 0.1,-0.3 0.1,-0.6 0.1,-0.6 v 0 c 0.1,-0.2 0.1,-0.5 0.1,-0.5 v 0 c 0,-0.1 0.1,-0.2 0.1,-0.2 v 0 c 0,-0.2 0,-0.5 0,-0.5 v 0 c 0.1,0 0.1,-0.4 0.1,-0.4 0,0 0,0 0,0 0,-0.4 0.2,-0.7 0.2,-1.2 0,-1.2 -0.4,-2.5 -1,-3.7 -1.7,-2.9 -5.5,-5.1 -11.3,-6.4 l -80.2,-18.5 c -4,-0.9 -9.8,-0.9 -13.8,0 z"
   inkscape:connector-curvature="0" />

				
					<linearGradient
   gradientUnits="userSpaceOnUse"
   id="XMLID_13_"
   y2="180.2"
   x2="219.9"
   y1="180.2"
   x1="36.13">
					<stop
   id="stop18"
   offset="0"
   style="stop-color:#333333" />

					<stop
   id="stop20"
   offset="0.247191"
   style="stop-color:#616161" />

					<stop
   id="stop22"
   offset="0.38764"
   style="stop-color:#949494" />

					<stop
   id="stop24"
   offset="0.51685399"
   style="stop-color:#dadada" />

					<stop
   id="stop26"
   offset="0.69662893"
   style="stop-color:#555555" />

					<stop
   id="stop28"
   offset="1"
   style="stop-color:#000000" />

					<a:midPointStop
   offset="0"
   style="stop-color:#333333" />

					<a:midPointStop
   offset="0.5"
   style="stop-color:#333333" />

					<a:midPointStop
   offset="0.247191"
   style="stop-color:#616161" />

					<a:midPointStop
   offset="0.5"
   style="stop-color:#616161" />

					<a:midPointStop
   offset="0.38764"
   style="stop-color:#949494" />

					<a:midPointStop
   offset="0.5"
   style="stop-color:#949494" />

					<a:midPointStop
   offset="0.516854"
   style="stop-color:#DADADA" />

					<a:midPointStop
   offset="0.5"
   style="stop-color:#DADADA" />

					<a:midPointStop
   offset="0.6966289"
   style="stop-color:#555555" />

					<a:midPointStop
   offset="0.5"
   style="stop-color:#555555" />

					<a:midPointStop
   offset="1"
   style="stop-color:#000000" />

				</linearGradient>

				<path
   id="path30"
   style="fill:url(#XMLID_13_)"
   d="m 211.9,189.9 c 0.1,-0.1 0.1,-0.2 0.1,-0.2 0,-0.1 0,-0.2 0,-0.3 0,0 0.1,-0.1 0.1,-0.2 0,0 0,-0.1 0,-0.2 0,-0.1 0,-0.1 0,-0.2 0.1,-0.1 0.1,-0.2 0.1,-0.2 0,-0.1 0,-0.2 0,-0.2 0,-0.1 0,-0.2 0.1,-0.3 0,0 0,-0.1 0,-0.2 0,0 0,-0.1 0,-0.2 0.1,-0.1 0.1,-0.1 0.1,-0.2 0,-0.1 0,-0.2 0,-0.2 0,-0.1 0,-0.2 0.1,-0.2 0,-0.1 0,-0.2 0,-0.3 0,0 0,-0.1 0,-0.2 0.1,0 0.1,-0.1 0.1,-0.2 0,-0.1 0,-0.1 0,-0.2 0,-0.1 0,-0.2 0.1,-0.2 0,-0.1 0,-0.2 0,-0.2 0,-0.1 0,-0.2 0,-0.3 0.1,0 0.1,-0.1 0.1,-0.2 0,0 0,-0.1 0,-0.2 0,-0.1 0,-0.1 0,-0.2 0.1,-0.1 0.1,-0.2 0.1,-0.2 0,-0.1 0,-0.2 0,-0.2 0.1,-0.1 0.1,-0.2 0.1,-0.3 0,0 0,-0.1 0,-0.2 0,0 0,-0.1 0,-0.2 0.1,-0.1 0.1,-0.1 0.1,-0.2 0,-0.1 0,-0.2 0,-0.2 0.1,-0.1 0.1,-0.2 0.1,-0.2 0,-0.1 0,-0.2 0,-0.3 0,0 0,-0.1 0,-0.2 0.1,0 0.1,-0.1 0.1,-0.2 0,-0.1 0,-0.1 0,-0.2 0,-0.1 0.1,-0.2 0.1,-0.2 0,-0.1 0,-0.2 0,-0.2 0,-0.1 0,-0.2 0,-0.3 0.1,0 0.1,-0.1 0.1,-0.2 0,0 0,-0.1 0,-0.2 0,-0.1 0.1,-0.1 0.1,-0.2 0,-0.1 0,-0.2 0,-0.2 0,-0.1 0,-0.2 0,-0.2 0.1,-0.1 0.1,-0.2 0.1,-0.3 0,0 0,-0.1 0,-0.2 0,0 0.1,-0.1 0.1,-0.2 0,-0.1 0,-0.1 0,-0.2 0,-0.1 0,-0.2 0,-0.2 0.1,-0.1 0.1,-0.2 0.1,-0.2 0,-0.1 0,-0.2 0,-0.3 0,0 0.1,-0.1 0.1,-0.2 0,0 0,-0.1 0,-0.2 0,-0.1 0,-0.1 0,-0.2 0.1,-0.1 0.1,-0.2 0.1,-0.2 0,-0.1 0,-0.2 0,-0.2 0,-0.1 0.1,-0.2 0.1,-0.3 0,0 0,-0.1 0,-0.2 0,0 0,-0.1 0,-0.2 0.1,-0.1 0.1,-0.1 0.1,-0.2 0,-0.1 0,-0.2 0,-0.2 0,-0.1 0,-0.2 0.1,-0.2 0,-0.1 0,-0.2 0,-0.3 0,0 0,-0.1 0,-0.2 0.1,0 0.1,-0.1 0.1,-0.2 0,-0.1 0,-0.1 0,-0.2 0,-0.1 0,-0.2 0.1,-0.2 0,-0.1 0,-0.2 0,-0.2 0,-0.1 0,-0.2 0,-0.3 0.1,0 0.1,-0.1 0.1,-0.2 0,-0.1 0,-0.1 0,-0.2 0,-0.1 0,-0.1 0.1,-0.2 0,-0.1 0,-0.2 0,-0.2 0,-0.1 0,-0.2 0,-0.2 0.1,-0.1 0.1,-0.2 0.1,-0.3 0,0 0,-0.1 0,-0.2 0,-0.1 0,-0.1 0.1,-0.2 0,-0.1 0,-0.1 0,-0.2 0,-0.1 0,-0.2 0,-0.2 0.1,-0.1 0.1,-0.2 0.1,-0.2 0,-0.1 0,-0.2 0,-0.3 0,0 0,-0.1 0,-0.2 0.1,0 0.1,-0.1 0.1,-0.2 0,-0.1 0,-0.1 0,-0.2 0.1,-0.1 0.1,-0.2 0.1,-0.2 0,-0.1 0,-0.2 0,-0.2 0,-0.1 0,-0.2 0,-0.3 0.1,0 0.1,-0.1 0.1,-0.2 0,-0.1 0,-0.1 0,-0.2 0,-0.1 0.1,-0.1 0.1,-0.2 0,-0.1 0,-0.2 0,-0.2 0,-0.1 0,-0.2 0,-0.2 0.1,-0.1 0.1,-0.2 0.1,-0.3 0,0 0,-0.1 0,-0.2 0,-0.1 0.1,-0.1 0.1,-0.2 0,-0.1 0,-0.1 0,-0.2 0,-0.1 0,-0.2 0,-0.2 0.1,-0.1 0.1,-0.2 0.1,-0.2 0,-0.1 0,-0.2 0,-0.3 0,0 0.1,-0.1 0.1,-0.2 0,-0.1 0,-0.1 0,-0.2 0,-0.1 0,-0.1 0,-0.2 0.1,-0.1 0.1,-0.2 0.1,-0.2 0,-0.1 0,-0.2 0,-0.2 0,-0.1 0.1,-0.2 0.1,-0.3 0,0 0,-0.1 0,-0.2 0,-0.1 0,-0.1 0,-0.2 0.1,-0.1 0.1,-0.1 0.1,-0.2 0,-0.1 0,-0.2 0,-0.2 0,-0.1 0.1,-0.2 0.1,-0.2 0,-0.1 0,-0.2 0,-0.3 0,0 0,-0.1 0,-0.2 0.1,-0.1 0.1,-0.1 0.1,-0.2 0,-0.1 0,-0.1 0,-0.2 0,-0.1 0.1,-0.2 0.1,-0.2 0,-0.1 0,-0.2 0,-0.2 0,-0.1 0,-0.2 0,-0.3 0.1,0 0.1,-0.1 0.1,-0.2 0,-0.1 0,-0.1 0,-0.2 0,-0.1 0,-0.1 0.1,-0.2 0,-0.1 0,-0.2 0,-0.2 0,-0.1 0,-0.2 0,-0.2 0.1,-0.1 0.1,-0.2 0.1,-0.3 0,0 0,-0.1 0,-0.2 0,-0.1 0,-0.1 0.1,-0.2 0,-0.1 0,-0.1 0,-0.2 0,-0.1 0,-0.2 0,-0.2 0.1,-0.1 0.1,-0.2 0.1,-0.3 0,0 0,-0.1 0,-0.2 0,0 0,-0.1 0.1,-0.2 0,-0.1 0,-0.1 0,-0.2 0,-0.1 0,-0.1 0,-0.2 0.1,-0.1 0.1,-0.2 0.1,-0.2 0,-0.1 0,-0.2 0,-0.3 0,0 0,-0.1 0,-0.2 0.1,0 0.1,-0.1 0.1,-0.2 0,-0.1 0,-0.1 0,-0.2 0.1,-0.1 0.1,-0.1 0.1,-0.2 0,-0.1 0,-0.2 0,-0.2 0,-0.1 0,-0.2 0,-0.2 0.1,-0.1 0.1,-0.2 0.1,-0.3 0,0 0,-0.1 0,-0.2 0,-0.1 0.1,-0.1 0.1,-0.2 0,-0.1 0,-0.1 0,-0.2 0,-0.1 0,-0.2 0,-0.2 0.1,-0.1 0.1,-0.2 0.1,-0.2 0,-0.1 0,-0.2 0,-0.3 0,0 0.1,-0.1 0.1,-0.2 0,-0.1 0,-0.1 0,-0.2 0,-0.1 0,-0.1 0,-0.2 0.1,-0.1 0.1,-0.2 0.1,-0.2 0,-0.1 0,-0.2 0,-0.2 0,-0.1 0.1,-0.2 0.1,-0.3 0,0 0,-0.1 0,-0.2 0,-0.1 0,-0.1 0,-0.2 0.1,-0.1 0.1,-0.1 0.1,-0.2 0,-0.1 0,-0.2 0,-0.2 0,-0.1 0.1,-0.2 0.1,-0.3 0,0 0,-0.1 0,-0.2 0,0 0,-0.1 0,-0.2 0.1,-0.1 0.1,-0.1 0.1,-0.2 0,-0.1 0,-0.1 0,-0.2 0,-0.1 0.1,-0.2 0.1,-0.2 0,-0.1 0,-0.2 0,-0.3 0,0 0,-0.1 0,-0.2 0.1,0 0.1,-0.1 0.1,-0.2 0,-0.1 0,-0.1 0,-0.2 0,-0.1 0,-0.1 0.1,-0.2 0,-0.1 0,-0.2 0,-0.2 0,-0.1 0,-0.2 0,-0.2 0.1,-0.1 0.1,-0.2 0.1,-0.3 0,0 0,-0.1 0,-0.2 0,-0.1 0,-0.1 0.1,-0.2 0,-0.1 0,-0.1 0,-0.2 0,-0.1 0,-0.2 0,-0.2 0.1,-0.1 0.1,-0.2 0.1,-0.3 0,0 0,-0.1 0,-0.2 0,0 0,-0.1 0.1,-0.2 0,-0.1 0,-0.1 0,-0.2 0,-0.1 0,-0.1 0,-0.2 0.1,-0.1 0.1,-0.2 0.1,-0.2 0,-0.1 0,-0.2 0,-0.3 0,0 0,-0.1 0.1,-0.2 0,0 0,-0.1 0,-0.2 0,-0.1 0,-0.1 0,-0.2 0.1,-0.1 0.1,-0.1 0.1,-0.2 0,-0.1 0,-0.2 0,-0.2 0,-0.1 0,-0.2 0,-0.3 0.1,0 0.1,-0.1 0.1,-0.2 0,0 0,-0.1 0,-0.2 0.1,-0.1 0.1,-0.1 0.1,-0.2 0,-0.1 0,-0.1 0,-0.2 0,-0.1 0,-0.2 0,-0.2 0.1,-0.1 0.1,-0.2 0.1,-0.3 0,0 0,-0.1 0,-0.2 0,0 0.1,-0.1 0.1,-0.2 0,-0.1 0,-0.1 0,-0.2 0,-0.1 0,-0.1 0,-0.2 0.1,-0.1 0.1,-0.2 0.1,-0.2 0,-0.1 0,-0.2 0,-0.3 0.5,-1.4 -2.5,-3.2 -7.3,-4.3 L 132.3,124 c -3.1,-0.8 -7.9,-0.8 -10.9,0 l -78.32,18.4 c -4.56,1.1 -7.26,2.8 -6.93,4.2 0,0.1 0,0.1 0,0.2 0,0.1 0,0.1 0,0.2 0,0.1 0,0.2 0,0.2 0,0.1 0,0.2 0,0.2 0,0.1 0,0.2 0,0.3 0,0 0,0.1 0,0.2 0,0.1 0,0.1 0,0.2 0,0.1 0,0.1 0,0.2 0,0.1 0,0.2 0,0.2 0,0.1 0,0.2 0,0.2 0,0.1 0,0.2 0,0.3 0,0 0,0.1 0,0.2 0,0.1 0,0.1 0,0.2 0,0.1 0,0.1 0,0.2 0,0.1 0,0.2 0,0.2 0,0.1 0,0.2 0,0.2 0,0.1 0,0.2 0,0.3 0,0 0,0.1 0,0.2 0,0.1 0,0.1 0,0.2 0,0.1 0,0.1 0,0.2 0,0.1 0,0.2 0,0.2 0,0.1 0,0.2 0,0.2 0,0.1 0,0.2 0,0.3 0,0 0,0.1 0,0.2 0,0.1 0,0.1 0,0.2 0,0.1 0,0.1 0,0.2 0,0.1 0,0.2 0,0.2 0,0.1 0,0.2 0,0.3 0,0 0,0.1 0,0.2 0,0 0,0.1 0,0.2 0,0.1 0,0.1 0,0.2 0,0.1 0,0.1 0,0.2 0,0.1 0,0.2 0,0.2 0,0.1 0,0.2 0,0.3 0,0 0,0.1 0,0.2 0,0 0,0.1 0,0.2 0,0.1 0,0.1 0,0.2 0,0.1 0,0.1 0,0.2 0,0.1 0,0.2 0,0.2 0,0.1 0,0.2 0,0.3 0,0 0,0.1 0,0.2 0,0 0,0.1 0,0.2 0,0.1 0,0.1 0,0.2 0,0.1 0,0.1 0,0.2 0,0.1 0,0.2 0,0.2 0,0.1 0,0.2 0,0.3 0,0 0,0.1 0,0.2 0,0 0,0.1 0,0.2 0,0.1 0,0.1 0,0.2 0,0.1 0,0.1 0,0.2 0,0.1 0,0.2 0,0.2 0,0.1 0,0.2 0,0.3 0,0 0,0.1 0,0.2 0,0 0,0.1 0,0.2 0,0.1 0,0.1 0,0.2 0,0.1 0,0.2 0,0.2 0,0.1 0,0.2 0,0.2 0,0.1 0,0.2 0,0.3 0,0 0,0.1 0,0.2 0,0 0,0.1 0,0.2 0,0.1 0,0.1 0,0.2 0,0.1 0,0.2 0,0.2 0,0.1 0,0.2 0,0.2 0,0.1 0,0.2 0,0.3 0,0 0,0.1 0,0.2 0,0 0,0.1 0,0.2 0,0.1 0,0.1 0,0.2 0,0.1 0,0.2 0,0.2 0,0.1 0,0.2 0,0.2 0,0.1 0,0.2 0,0.3 0,0 0,0.1 0,0.2 0,0 0,0.1 0,0.2 0,0.1 0,0.1 0,0.2 0,0.1 0,0.2 0,0.2 0,0.1 0,0.2 0,0.2 0,0.1 0,0.2 0,0.3 0,0 0,0.1 0,0.2 0,0 0,0.1 0,0.2 0,0.1 0,0.1 0,0.2 0,0.1 0,0.2 0,0.2 0,0.1 0,0.2 0,0.2 0,0.1 0,0.2 0,0.3 0,0 0,0.1 0,0.2 0,0.1 0,0.1 0,0.2 0,0.1 0,0.1 0,0.2 0,0.1 0,0.2 0,0.2 0,0.1 0,0.2 0,0.2 0,0.1 0,0.2 0,0.3 0,0 0,0.1 0,0.2 0,0.1 0,0.1 0,0.2 0,0.1 0,0.1 0,0.2 0,0.1 0,0.2 0,0.2 0,0.1 0,0.2 0,0.2 0,0.1 0,0.2 0,0.3 0,0 0,0.1 0,0.2 0,0.1 0,0.1 0,0.2 0,0.1 0,0.1 0,0.2 0,0.1 0,0.2 0,0.2 0,0.1 0,0.2 0,0.2 0,0.1 0,0.2 0,0.3 0,0 0,0.1 0,0.2 0,0.1 0,0.1 0,0.2 0,0.1 0,0.1 0,0.2 0,0.1 0,0.2 0,0.2 0,0.1 0,0.2 0,0.2 0,0.1 0,0.2 0,0.3 0,0 0,0.1 0,0.2 0,0.1 0,0.1 0,0.2 0,0.1 0,0.1 0,0.2 0,0.1 0,0.2 0,0.2 0,0.1 0,0.2 0,0.2 0,0.1 0,0.2 0,0.3 0,0 0,0.1 0,0.2 0,0.1 0,0.1 0,0.2 0,0.1 0,0.1 0,0.2 0,0.1 0,0.2 0,0.2 0,0.1 0,0.2 0,0.2 0,0.1 0,0.2 0,0.3 0,0 0,0.1 0,0.2 0,0.1 0,0.1 0,0.2 0,0.1 0,0.1 0,0.2 0,0.1 0,0.2 0,0.2 0,0.1 0,0.2 0,0.3 0,0 0,0.1 0,0.2 0,0 0,0.1 0,0.2 0,0.1 0,0.1 0,0.2 0,0.1 0,0.1 0,0.2 0,0.1 0,0.2 0,0.2 0,0.1 0,0.2 0,0.3 0,0 0,0.1 0,0.2 0,0 0,0.1 0,0.2 0,0.1 0,0.1 0,0.2 0,0.1 0,0.1 0,0.2 0,0.1 0,0.2 0,0.2 0,0.1 0,0.2 0,0.3 0,0 0,0.1 0,0.2 0,0 0,0.1 0,0.2 0,0.1 0,0.1 0,0.2 0,0.1 0,0.1 0,0.2 0,0.1 0,0.2 0,0.2 0,0.1 0,0.2 0,0.3 0,0 0,0.1 0,0.2 0,0 0,0.1 0,0.2 0,0.1 0,0.1 0,0.2 0,0.1 0,0.1 0,0.2 0,0.1 0,0.2 0,0.2 0,0.1 0,0.2 0,0.3 0,0 0,0.1 0,0.2 0,0 0,0.1 0,0.2 0,0.1 0,0.1 0,0.2 0,0.1 0,0.2 0,0.2 0,0.1 0,0.2 0,0.2 0,0.1 0,0.2 0,0.3 0,0 0,0.1 0,0.2 0,0 0,0.1 0,0.2 0,0.1 0,0.1 0,0.2 0,0.1 0,0.2 0,0.2 0,0.1 0,0.2 0,0.2 0,0.1 0,0.2 0,0.3 0,0 0,0.1 0,0.2 0,0 0,0.1 0,0.2 0,0.1 0,0.1 0,0.2 0,0.1 0,0.2 0,0.2 0,0.1 0,0.2 0,0.2 0,0.1 0,0.2 0,0.3 0,0 0,0.1 0,0.2 0,0 0,0.1 0,0.2 0,0.1 0,0.1 0,0.2 0,0.1 0,0.2 0,0.2 0,0.1 0,0.2 0,0.2 0,0.1 0,0.2 0,0.3 0,0 0,0.1 0,0.2 0,0 0,0.1 0,0.2 0,0.1 0,0.1 0,0.2 0,0.1 0,0.2 0,0.2 0,0.1 0,0.2 0,0.2 0,0.1 0,0.2 0,0.3 0,0 0,0.1 0,0.2 0,0.1 0,0.1 0,0.2 0,0.1 0,0.1 0,0.2 0,0.1 0,0.2 0,0.2 0,0.1 0,0.2 0,0.2 0,0.1 0,0.2 0,0.3 0,0 0,0.1 0,0.2 0,0.1 0,0.1 0,0.2 0,0.1 0,0.1 0,0.2 0,0.1 0,0.2 0,0.2 0,0.1 0,0.2 0,0.2 0,0.1 0,0.2 0,0.3 0,0 0,0.1 0,0.2 0,0.1 0,0.1 0,0.2 0,0.1 0,0.1 0,0.2 0,0.1 0,0.2 0,0.2 0,0.1 0,0.2 0,0.2 0,0.1 0,0.2 0,0.3 0,0 0,0.1 0,0.2 0,0.1 0,0.1 0,0.2 0,0.1 0,0.1 0,0.2 0,0.1 0,0.2 0,0.2 0,0.1 0,0.2 0,0.2 0,0.5 0.3,0.9 0.9,1.2 L 119.4,234 c 6.7,3.9 17.7,3.8 23.8,0 l 68,-42.9 c 0.4,-0.3 0.7,-0.7 0.7,-1 0,-0.1 0,-0.2 0,-0.2 z"
   inkscape:connector-curvature="0" />

				
					<linearGradient
   gradientUnits="userSpaceOnUse"
   id="XMLID_14_"
   y2="123.4"
   x2="128"
   y1="189.4"
   x1="128">
					<stop
   id="stop33"
   offset="0"
   style="stop-color:#ffffff" />

					<stop
   id="stop35"
   offset="0.30000001"
   style="stop-color:#828282" />

					<stop
   id="stop37"
   offset="0.69999999"
   style="stop-color:#555555" />

					<stop
   id="stop39"
   offset="1"
   style="stop-color:#000000" />

					<a:midPointStop
   offset="0"
   style="stop-color:#FFFFFF" />

					<a:midPointStop
   offset="0.5"
   style="stop-color:#FFFFFF" />

					<a:midPointStop
   offset="0.3"
   style="stop-color:#828282" />

					<a:midPointStop
   offset="0.5"
   style="stop-color:#828282" />

					<a:midPointStop
   offset="0.7"
   style="stop-color:#555555" />

					<a:midPointStop
   offset="0.5"
   style="stop-color:#555555" />

					<a:midPointStop
   offset="1"
   style="stop-color:#000000" />

				</linearGradient>

				<path
   id="path41"
   style="fill:url(#XMLID_14_)"
   d="m 43.08,142.4 c -5.79,1.4 -8.6,3.7 -5.98,5.2 l 81.5,38.7 c 7.3,4.2 19.3,4.1 26,-0.1 l 74.5,-38.6 c 2.4,-1.5 -0.7,-3.8 -6.6,-5.2 L 132.3,124 c -3.1,-0.8 -7.9,-0.8 -10.9,0 z"
   inkscape:connector-curvature="0" />

				
					<radialGradient
   gradientUnits="userSpaceOnUse"
   id="XMLID_15_"
   fy="186.5"
   fx="128.5"
   r="112.3"
   cy="186.5"
   cx="128.5">
					<stop
   id="stop44"
   offset="0.005618"
   style="stop-color:#f0f0f0" />

					<stop
   id="stop46"
   offset="0.54494399"
   style="stop-color:#616161" />

					<stop
   id="stop48"
   offset="1"
   style="stop-color:#949494" />

					<a:midPointStop
   offset="0.005618"
   style="stop-color:#F0F0F0" />

					<a:midPointStop
   offset="0.5"
   style="stop-color:#F0F0F0" />

					<a:midPointStop
   offset="0.544944"
   style="stop-color:#616161" />

					<a:midPointStop
   offset="0.5"
   style="stop-color:#616161" />

					<a:midPointStop
   offset="1"
   style="stop-color:#949494" />

				</radialGradient>

				<path
   id="path50"
   style="fill:url(#XMLID_15_)"
   d="m 62.29,146.5 c -4.49,1 -6.66,2.8 -4.63,4 l 63.04,29.9 c 5.6,3.2 15,3.2 20.1,-0.1 l 57.6,-29.8 c 1.9,-1.2 -0.5,-3 -5,-4 l -62.1,-14.3 c -2.4,-0.6 -6.1,-0.6 -8.5,0 z"
   inkscape:connector-curvature="0" />

				
					<linearGradient
   gradientUnits="userSpaceOnUse"
   id="XMLID_16_"
   y2="174"
   x2="128.2"
   y1="118.9"
   x1="128.2">
					<stop
   id="stop53"
   offset="0.005618"
   style="stop-color:#494949" />

					<stop
   id="stop55"
   offset="0.54494399"
   style="stop-color:#616161" />

					<stop
   id="stop57"
   offset="1"
   style="stop-color:#a2a2a2" />

					<a:midPointStop
   offset="0.005618"
   style="stop-color:#494949" />

					<a:midPointStop
   offset="0.5"
   style="stop-color:#494949" />

					<a:midPointStop
   offset="0.544944"
   style="stop-color:#616161" />

					<a:midPointStop
   offset="0.5"
   style="stop-color:#616161" />

					<a:midPointStop
   offset="1"
   style="stop-color:#A2A2A2" />

				</linearGradient>

				<path
   id="path59"
   style="fill:url(#XMLID_16_)"
   d="m 71.75,147.1 c -3.85,0.9 -5.71,2.4 -3.97,3.4 l 54.12,25.7 c 4.9,2.8 12.9,2.8 17.3,0 l 49.5,-25.7 c 1.5,-1 -0.5,-2.5 -4.4,-3.4 L 131,134.8 c -2,-0.5 -5.2,-0.5 -7.3,0 z"
   inkscape:connector-curvature="0" />

				<path
   id="path61"
   style="fill:#494949"
   d="M 133.7,50.16 H 117 V 152.4 c 0,5.1 4.6,9.1 10.4,9.1 5.9,0 10.5,-4 10.5,-9.1 V 50.16 Z"
   inkscape:connector-curvature="0" />

				
					<linearGradient
   gradientUnits="userSpaceOnUse"
   id="XMLID_17_"
   y2="105.8"
   x2="133.7"
   y1="105.8"
   x1="121.2">
					<stop
   id="stop64"
   offset="0"
   style="stop-color:#bdbdcf" />

					<stop
   id="stop66"
   offset="0.25842699"
   style="stop-color:#ffffff" />

					<stop
   id="stop68"
   offset="1"
   style="stop-color:#7d7d99" />

					<a:midPointStop
   offset="0"
   style="stop-color:#BDBDCF" />

					<a:midPointStop
   offset="0.5"
   style="stop-color:#BDBDCF" />

					<a:midPointStop
   offset="0.258427"
   style="stop-color:#FFFFFF" />

					<a:midPointStop
   offset="0.5"
   style="stop-color:#FFFFFF" />

					<a:midPointStop
   offset="1"
   style="stop-color:#7D7D99" />

				</linearGradient>

				<path
   id="path70"
   style="fill:url(#XMLID_17_)"
   d="m 121.2,54.35 v 98.05 c 0,2.7 2.8,4.9 6.2,4.9 3.5,0 6.3,-2.2 6.3,-4.9 V 54.35 Z"
   inkscape:connector-curvature="0" />

				
					<linearGradient
   gradientUnits="userSpaceOnUse"
   id="XMLID_18_"
   y2="45.98"
   x2="160.6"
   y1="45.98"
   x1="94.32">
					<stop
   id="stop73"
   offset="0"
   style="stop-color:#600000" />

					<stop
   id="stop75"
   offset="1"
   style="stop-color:#540000" />

					<a:midPointStop
   offset="0"
   style="stop-color:#600000" />

					<a:midPointStop
   offset="0.5"
   style="stop-color:#600000" />

					<a:midPointStop
   offset="1"
   style="stop-color:#540000" />

				</linearGradient>

				<path
   id="path77"
   style="fill:url(#XMLID_18_)"
   d="m 94.32,45.98 c 0,18.26 14.88,33.13 33.08,33.13 18.3,0 33.2,-14.87 33.2,-33.13 0,-8.85 -3.5,-17.17 -9.7,-23.43 -6.3,-6.26 -14.6,-9.7 -23.5,-9.7 -18.2,0 -33.08,14.86 -33.08,33.13 z"
   inkscape:connector-curvature="0" />

				
					<radialGradient
   gradientUnits="userSpaceOnUse"
   id="XMLID_19_"
   fy="30.28"
   fx="118.7"
   r="49.32"
   cy="30.28"
   cx="118.7">
					<stop
   id="stop80"
   offset="0.005618"
   style="stop-color:#ffffff" />

					<stop
   id="stop82"
   offset="0.196629"
   style="stop-color:#f8310e" />

					<stop
   id="stop84"
   offset="0.32584301"
   style="stop-color:#ff0000" />

					<stop
   id="stop86"
   offset="0.58427"
   style="stop-color:#cf0000" />

					<stop
   id="stop88"
   offset="1"
   style="stop-color:#600000" />

					<a:midPointStop
   offset="0.005618"
   style="stop-color:#FFFFFF" />

					<a:midPointStop
   offset="0.5"
   style="stop-color:#FFFFFF" />

					<a:midPointStop
   offset="0.196629"
   style="stop-color:#F8310E" />

					<a:midPointStop
   offset="0.5"
   style="stop-color:#F8310E" />

					<a:midPointStop
   offset="0.325843"
   style="stop-color:#FF0000" />

					<a:midPointStop
   offset="0.5"
   style="stop-color:#FF0000" />

					<a:midPointStop
   offset="0.58427"
   style="stop-color:#CF0000" />

					<a:midPointStop
   offset="0.5"
   style="stop-color:#CF0000" />

					<a:midPointStop
   offset="1"
   style="stop-color:#600000" />

				</radialGradient>

				<circle
   id="circle90"
   style="fill:url(#XMLID_19_)"
   r="28.94"
   cy="45.98"
   cx="127.4" />
 
				<g
   id="g92">
					
						<linearGradient
   gradientUnits="userSpaceOnUse"
   id="XMLID_20_"
   y2="165.2"
   x2="124.1"
   y1="183"
   x1="141.9">
						<stop
   id="stop95"
   offset="0"
   style="stop-color:#7c0000" />

						<stop
   id="stop97"
   offset="1"
   style="stop-color:#540000" />

						<a:midPointStop
   offset="0"
   style="stop-color:#7C0000" />

						<a:midPointStop
   offset="0.5"
   style="stop-color:#7C0000" />

						<a:midPointStop
   offset="1"
   style="stop-color:#540000" />

					</linearGradient>

					<path
   id="path99"
   style="fill:url(#XMLID_20_)"
   d="m 114.5,172.2 v 3.9 c 0,6.4 9.6,9.4 18.5,9.4 8.8,0 18.2,-2.9 18.5,-9.2 0,-0.2 0,-0.5 0,-0.5 l -0.1,0.6 0.1,-0.7 -0.1,0.6 0.1,-0.7 -0.1,0.6 0.1,-0.7 -0.1,0.6 0.1,-0.7 -0.1,0.6 0.1,-0.7 -0.1,0.6 0.1,-0.8 -0.1,0.7 0.1,-0.8 -0.1,0.6 0.1,-0.7 -0.1,0.7 0.1,-0.8 -0.1,0.6 0.1,-0.7 -0.1,0.6 0.1,-0.7 -0.1,0.6 0.1,-0.7 -0.1,0.6 0.1,-0.8 -0.1,0.6 0.1,-0.7 -0.1,0.7 0.1,-0.8 -0.1,0.6 0.1,-0.7 -0.1,0.6 0.1,-0.7 -0.1,0.6 0.1,-0.7 -0.1,0.6 0.1,-0.7 -0.1,0.6 0.1,-0.8 -0.1,0.7 0.1,-0.8 -0.1,0.6 0.1,-0.7 -0.1,0.6 0.1,-0.7 -0.1,0.6 0.1,-0.7 -0.1,0.6 0.1,-0.7 -0.1,0.6 0.1,-0.8 -0.1,0.7 0.1,-0.8 -0.1,0.6 0.1,-0.7 -0.1,0.6 0.1,-0.7 -0.1,0.6 0.1,-0.7 -0.1,0.6 0.1,-0.7 c 0,-6.6 -9.6,-9.5 -18.5,-9.5 -8.9,0 -18.5,2.9 -18.5,9.4 z m 37,4.1 c 0,0 0,-0.1 0,-0.1 0,-0.1 0,-0.2 0,-0.2 0,0 0,0.1 0,0.3 z"
   inkscape:connector-curvature="0" />

					
						<linearGradient
   gradientUnits="userSpaceOnUse"
   id="XMLID_21_"
   y2="175"
   x2="147.3"
   y1="175"
   x1="118.7">
						<stop
   id="stop102"
   offset="0.005618"
   style="stop-color:#ff0000" />

						<stop
   id="stop104"
   offset="0.5"
   style="stop-color:#cf0000" />

						<stop
   id="stop106"
   offset="1"
   style="stop-color:#990000" />

						<a:midPointStop
   offset="0.005618"
   style="stop-color:#FF0000" />

						<a:midPointStop
   offset="0.5"
   style="stop-color:#FF0000" />

						<a:midPointStop
   offset="0.5"
   style="stop-color:#CF0000" />

						<a:midPointStop
   offset="0.5"
   style="stop-color:#CF0000" />

						<a:midPointStop
   offset="1"
   style="stop-color:#990000" />

					</linearGradient>

					<path
   id="path108"
   style="fill:url(#XMLID_21_)"
   d="m 147.3,172.9 c 0,0 0,0 0,0 0,-3.3 -6.4,-5.9 -14.3,-5.9 -7.9,0 -14.3,2.6 -14.3,5.9 0,0 0,0 0,0 0,0 0,0 0,0.1 0,0 0,0 0,0 0,0 0,0 0,0 0,0 0,0 0,0 0,0 0,0 0,0 0,0 0,0.1 0,0.1 0,0 0,0 0,0 0,0 0,0 0,0 0,0 0,0 0,0 0,0 0,0 0,0 0,0 0,0.1 0,0.1 0,0 0,0 0,0 0,0 0,0 0,0 0,0 0,0 0,0 0,0 0,0 0,0 0,0.1 0,0.1 0,0.1 0,0 0,0 0,0 0,0 0,0 0,0 0,0 0,0 0,0 0,0 0,0 0,0 0,0.1 0,0.1 0,0.1 0,0 0,0 0,0 0,0 0,0 0,0 0,0 0,0 0,0 0,0 0,0 0,0.1 0,0 0,0 0,0 0,0 0,0 0,0 0,0 0,0 0,0 0,0 0,0 0,0 0,0 0,0 0,0.1 0,0 0,0 0,0 0,0 0,0 0,0 0,0 0,0 0,0 0,0 0,0 0,0 0,0 0,0.1 0,0.1 0,0 0,0 0,0 0,0 0,0 0,0 0,0 0,0 0,0 0,0 0,0 0,0 0,0 0,0.1 0,0.1 0,0 0,0 0,0 0,0 0,0 0,0 0,0 0,0 0,0 0,0 0,0 0,0 0,0.1 0,0.1 0,0.1 0,0 0,0 0,0 0,0 0,0 0,0 0,0 0,0 0,0 0,0 0,0 0,0 0,0.1 0,0.1 0,0.1 0,0 0,0 0,0 0,0 0,0 0,0 0,0 0,0 0,0 0,0 0,0 0,0.1 0,0 0,0 0,0 0,0 0,0 0,0 0,0 0,0 0,0 0,0 0,0 0,0 0,0 0,0 0,0.1 0,0 0,0 0,0 0,0 0,0 0,0 0,0 0,0 0,0 0,0 0,0 0,0 0,0 0,0.1 0,0.1 0,0 0,0 0,0 0,0 0,0 0,0 0,0 0,0 0,0 0,0 0,0 0,0 0,0 0,0.1 0,0.1 0,0 0,0 0,0 0,0 0,0 0,0 0,0 0,0 0,0 0,0 0,0 0,0 0,0.1 0,0.1 0,0.1 0,0 0,0 0,0 0,0 0,0 0,0 0,0 0,0 0,0 0,0 0,0 0,0.1 0,0 0,0 0,0 0,0 0,0 0,0 0,0 0,0 0,0 0,0 0,0 0,0 0,0 0,0 0,0.1 0,0 0,0 0,0 0,0 0,0 0,0 0,0 0,0 0,0 0,0 0,0 0,0 0,0 0,0.1 0,0.1 0,0 0,0 0,0 0,0 0,0 0,0 0,0 0,0 0,0 0,0 0,0 0,0 0,0 0,0.1 0,0.1 0,0 0,0 0,0 0,0 0,0 0,0 0,0 0,0 0,0 0,0 0,0 0,0 0,0.1 0,0.1 0,0.1 0,0 0,0 0,0 0,0 0,0 0,0 0,0 0,0 0,0 0,0 0,0 0,0 0,0.1 0,0.1 0,0.1 0,0 0,0 0,0 0,0 0,0 0,0 0,0 0,0 0,0 0,0 0,0 0,0.1 0,0 0,0 0,0 0,0 0,0 0,0 0,0 0,0 0,0 0,0 0,0 0,0 0,0 0,0 0,0.1 0,0 0,0 0,0 0,0 0,0 0,0 0,0 0,0 0,0 0,0 0,0 0,0 0,0 0,0.1 0,0.1 0,0 0,0 0,0 0,0 0,0 0,0 0,0 0,0 0,0 0,0 0,0 0,0 0,0 0,0.1 0,0.1 0,0 0,0 0,0 0,0 0,0 0,0 0,0 0,0 0,0 0,0 0,0 0,0 0,0.1 0,0.1 0,0.1 0,0 0,0 0,0 0,0 0,0 0,0 0,0 0,0 0,0 0,0 0,0 0,0 0,0.1 0,0.1 0,0.1 0,0 0,0 0,0 0,0 0,0 0,0 0,0 0,0 0,0 0,0 0,0 0,0.1 0,0 0,0 0,0 0,0 0,0 0,0 0,0 0,0 0,0 0,0 0,0 0,0 0,0 0,0 0,0.1 0,0 0,0 0,0 0,0 0,0 0,0 0,0 0,0 0,0 0,0 0,0 0,0 0,0 0,0.1 0,0.1 0,0 0,0 0,0 0,0 0,0 0,0 0,0 0,0 0,0 0,0 0,0 0,0 0,0 0,0.1 0,0.1 0,0 0,0 0,0 0,0 0,0 0,0 0,0 0,0 0,0 0,0 0,0 0,0 0,0.1 0,0.1 0,0.1 0,0 0,0 0,0 0,0 0,0 0,0 0,0 0,0 0,0 0,0 0,0 0,0 0,0.1 0,0.1 0,0.1 0,0 0,0 0,0 0,0 0,0 0,0 0,0 0,0 0,0 0,0 0,0 0,0.1 0,0 0,0 0,0 0,0 0,0 0,0 0,0 0,0 0,0 0,0 0,0 0,0 0,0 0,0 0,0.1 0,0 0,0 0,0 0,0 0,0 0,0 0,0 0,0 0,0 0,0 0,0 0,0 0,0 0,0.1 0,0.1 0,0 0,0 0,0 0,0 0,0 0,0 0,0 0,0 0,0 0,0 0,0 0,0 0,0 0,0.1 0,0.1 0,0 0,0 0,0 0,0 0,0 0,0 0,0 0,0 0,0 0,0 0,0 0,0 0,0.1 0,0.1 0,0.1 0,0 0,0 0,0 0,0 0,0 0,0 0,0 0,0 0,0 0,0 0,0 0,0 0,0.1 0,0.1 0,0.1 0,0 0,0 0,0 0,0 0,0 0,0 0,0 0,0 0,0 0,0 0,0 0,0.1 0,0 0,0 0,0 0,0 0,0 0,0 0,0 0,0 0,0 0,0 0,0 0,0 0,0 0,0 0,0.1 0,0 0,0 0,0 0,0 0,0 0,0 0,3.3 6.4,5.9 14.3,5.9 7.9,0 14.3,-2.6 14.3,-5.9 0,0 0,0 0,0 0,0 0,0 0,0 0,-0.1 0,-0.1 0,-0.1 0,0 0,0 0,0 0,0 0,0 0,0 0,0 0,0 0,0 0,0 0,0 0,0 0,-0.1 0,-0.1 0,-0.1 0,0 0,0 0,0 0,0 0,0 0,0 0,0 0,0 0,0 0,0 0,0 0,-0.1 0,0 0,0 0,0 0,0 0,0 0,0 0,0 0,0 0,0 0,0 0,0 0,0 0,0 0,0 0,-0.1 0,0 0,0 0,0 0,0 0,0 0,0 0,0 0,0 0,0 0,0 0,0 0,0 0,0 0,-0.1 0,-0.1 0,0 0,0 0,0 0,0 0,0 0,0 0,0 0,0 0,0 0,0 0,0 0,0 0,0 0,-0.1 0,-0.1 0,0 0,0 0,0 0,0 0,0 0,0 0,0 0,0 0,0 0,0 0,0 0,0 0,-0.1 0,-0.1 0,-0.1 0,0 0,0 0,0 0,0 0,0 0,0 0,0 0,0 0,0 0,0 0,0 0,0 0,-0.1 0,-0.1 0,-0.1 0,0 0,0 0,0 0,0 0,0 0,0 0,0 0,0 0,0 0,0 0,0 0,-0.1 0,0 0,0 0,0 0,0 0,0 0,0 0,0 0,0 0,0 0,0 0,0 0,0 0,0 0,0 0,-0.1 0,0 0,0 0,0 0,0 0,0 0,0 0,0 0,0 0,0 0,0 0,0 0,0 0,0 0,-0.1 0,-0.1 0,0 0,0 0,0 0,0 0,0 0,0 0,0 0,0 0,0 0,0 0,0 0,0 0,0 0,-0.1 0,-0.1 0,0 0,0 0,0 0,0 0,0 0,0 0,0 0,0 0,0 0,0 0,0 0,0 0,-0.1 0,-0.1 0,-0.1 0,0 0,0 0,0 0,0 0,0 0,0 0,0 0,0 0,0 0,0 0,0 0,0 0,-0.1 0,-0.1 0,-0.1 0,0 0,0 0,0 0,0 0,0 0,0 0,0 0,0 0,0 0,0 0,0 0,-0.1 0,0 0,0 0,0 0,0 0,0 0,0 0,0 0,0 0,0 0,0 0,0 0,0 0,0 0,0 0,-0.1 0,0 0,0 0,0 0,0 0,0 0,0 0,0 0,0 0,0 0,0 0,0 0,0 0,0 0,-0.1 0,-0.1 0,0 0,0 0,0 0,0 0,0 0,0 0,0 0,0 0,0 0,0 0,0 0,0 0,0 0,-0.1 0,-0.1 0,0 0,0 0,0 0,0 0,0 0,0 0,0 0,0 0,0 0,0 0,0 0,0 0,-0.1 0,-0.1 0,-0.1 0,0 0,0 0,0 0,0 0,0 0,0 0,0 0,0 0,0 0,0 0,0 0,0 0,-0.1 0,-0.1 0,-0.1 0,0 0,0 0,0 0,0 0,0 0,0 0,0 0,0 0,0 0,0 0,0 0,-0.1 0,0 0,0 0,0 0,0 0,0 0,0 0,0 0,0 0,0 0,0 0,0 0,0 0,0 0,0 0,-0.1 0,0 0,0 0,0 0,0 0,0 0,0 0,0 0,0 0,0 0,0 0,0 0,0 0,0 0,-0.1 0,-0.1 0,0 0,0 0,0 0,0 0,0 0,0 0,0 0,0 0,0 0,0 0,0 0,0 0,0 0,-0.1 0,-0.1 0,0 0,0 0,0 0,0 0,0 0,0 0,0 0,0 0,0 0,0 0,0 0,0 0,-0.1 0,-0.1 0,-0.1 0,0 0,0 0,0 0,0 0,0 0,0 0,0 0,0 0,0 0,0 0,0 0,0 0,-0.1 0,-0.1 0,-0.1 0,0 0,0 0,0 0,0 0,0 0,0 0,0 0,0 0,0 0,0 0,0 0,-0.1 0,0 0,0 0,0 0,0 0,0 0,0 0,0 0,0 0,0 0,0 0,0 0,0 0,0 0,-0.1 0,-0.1 0,0 0,0 0,0 0,0 0,0 0,0 0,0 0,0 0,0 0,0 0,0 0,0 0,0 0,-0.1 0,-0.1 0,0 0,0 0,0 0,0 0,0 0,0 0,0 0,0 0,0 0,0 0,0 0,0 0,-0.1 0,-0.1 0,-0.1 0,0 0,0 0,0 0,0 0,0 0,0 0,0 0,0 0,0 0,0 0,0 0,0 0,-0.1 0,-0.1 0,-0.1 0,0 0,0 0,0 0,0 0,0 0,0 0,0 0,0 0,0 0,0 0,0 0,-0.1 0,0 0,0 0,0 0,0 0,0 0,0 0,0 0,0 0,0 0,0 0,0 0,0 0,0 0,0 0,-0.1 0,0 0,0 0,0 0,0 0,0 0,0 0,0 0,0 0,0 0,0 0,0 0,0 0,0 0,-0.1 0,-0.1 0,0 0,0 0,0 0,0 0,0 0,0 0,0 0,0 0,0 0,0 0,0 0,0 0,0 0,-0.1 0,-0.1 0,0 0,0 0,0 0,0 0,0 0,0 0,0 0,0 0,0 0,0 0,0 0,0 0,-0.1 0,-0.1 0,-0.1 0,0 0,0 0,0 0,0 0,0 0,0 0,0 0,0 0,0 0,0 0,0 0,0 0,-0.1 0,-0.1 0,-0.1 0,0 0,0 0,0 0,0 0,0 0,0 0,0 0,0 0,0 0,0 0,0 0,-0.1 0,0 0,0 0,0 0,0 0,0 0,0 0,0 0,0 0,0 0,0 0,0 0,0 0,0 0,0 0,-0.1 0,0 0,0 0,0 0,0 0,0 0,0 0,0 0,0 0,0 0,0 0,0 0,0 0,0 0,-0.1 0,-0.1 0,0 0,0 0,0 0,0 0,0 0,0 0,0 0,0 0,0 0,0 0,0 0,0 0,0 0,-0.1 0,-0.1 0,0 0,0 0,0 0,0 0,0 0,0 0,0 0,0 0,0 0,0 0,0 0,0 0,-0.1 0,-0.1 0,-0.1 z"
   inkscape:connector-curvature="0" />

					<ellipse
   id="ellipse110"
   style="fill:#ffffff"
   ry="5.93"
   rx="14.3"
   cy="170.8"
   cx="133" />
 
					
						<linearGradient
   gradientUnits="userSpaceOnUse"
   id="XMLID_22_"
   y2="195.6"
   x2="133"
   y1="162.1"
   x1="133">
						<stop
   id="stop113"
   offset="0.005618"
   style="stop-color:#ffffff" />

						<stop
   id="stop115"
   offset="0.54494399"
   style="stop-color:#ff0000" />

						<stop
   id="stop117"
   offset="1"
   style="stop-color:#cf0000" />

						<a:midPointStop
   offset="0.005618"
   style="stop-color:#FFFFFF" />

						<a:midPointStop
   offset="0.5"
   style="stop-color:#FFFFFF" />

						<a:midPointStop
   offset="0.544944"
   style="stop-color:#FF0000" />

						<a:midPointStop
   offset="0.5"
   style="stop-color:#FF0000" />

						<a:midPointStop
   offset="1"
   style="stop-color:#CF0000" />

					</linearGradient>

					<ellipse
   id="ellipse119"
   style="fill:url(#XMLID_22_)"
   ry="5.928"
   rx="14.3"
   cy="172.9"
   cx="133" />
 
				</g>

			</g>

		</g>
  </g>
</svg>
